<?xml version="1.0" encoding="utf-8"?>
<!-- Generator: Adobe Illustrator 27.2.0, SVG Export Plug-In . SVG Version: 6.00 Build 0)  -->
<svg version="1.1" xmlns="http://www.w3.org/2000/svg" xmlns:xlink="http://www.w3.org/1999/xlink" x="0px" y="0px"
	 viewBox="0 0 559.1 426.2" style="enable-background:new 0 0 559.1 426.2;" xml:space="preserve">
<style type="text/css">
	.st0{fill:#FFB2BE;}
	.st1{fill:#ED4E66;}
	.st2{fill:#EF4E65;}
	.st3{fill:#FF8942;}
	.st4{fill:#C06EC4;}
	.st5{fill:#5E4442;}
	.st6{fill:#FF8C97;}
</style>
<g id="фон">
</g>
<g id="Слой_1">
</g>
<g id="Слой_3">
	<g>
		<path class="st2" d="M548.6,288.8l-35.1-18.6c-9.6-5.1-21.5-1.4-26.5,8.2c-5.1,9.6-1.4,21.5,8.2,26.5l1.7,0.9
			c-5.1,9.3-13.3,22.2-25.1,34.9c-28.6,30.7-64.7,46.3-107.3,46.3c-0.4,0-0.7,0-1.1,0c-43.1-0.3-79.1-15.4-107-45.1
			c-12.5-13.4-20.7-26.9-25.3-35.8l2.1-1.1c9.6-5.1,13.2-16.9,8.2-26.5c-5.1-9.6-16.9-13.2-26.5-8.2l-35.1,18.6
			c-9.6,5.1-13.2,16.9-8.2,26.5c3.5,6.7,10.3,10.4,17.4,10.4c2.5,0,5-0.5,7.4-1.5c5.8,11.3,15.5,27.2,30.1,43.1
			c24.5,26.6,68.1,58.4,136.6,58.9c0.4,0,0.9,0,1.3,0c53.8,0,101.2-20.7,137.2-60c14-15.3,23.7-30.6,29.9-42.1
			c2.5,1.1,5.2,1.7,7.9,1.7c7,0,13.8-3.8,17.4-10.4C561.9,305.7,558.2,293.8,548.6,288.8z"/>
		<g>
			<path class="st2" d="M559,154.7c0,18.6-0.1,37.2,0,55.8c0.1,11.6-5.2,20.2-14.9,25.7c-10.3,5.9-20.9,5.3-30.6-1.8
				c-2.8-2-5.1-1.9-8-0.8c-30.5,11.5-59.4,8.5-85.2-11.7c-18.3-14.4-29.7-33.3-32.7-57.1c-2.8-22.8,2.6-43.3,15.9-61.5
				c13.2-18.2,31.2-30,53.6-33.6c17.2-2.7,34.3-1.6,50.5,5.9c2.6,1.2,3.9-0.5,5.3-1.5c9.6-7.1,20-7.3,30.3-2.5
				c10.3,4.8,15.6,13.4,15.7,24.8C559.2,115.8,559,135.3,559,154.7z M444.9,154.3c-1.3,14.3,11.8,28.6,27.9,28.5
				c15.3-0.1,29-11.4,28.9-29c-0.1-15.4-11.6-27.3-26.3-27.5C456.5,126.1,444.9,136.8,444.9,154.3z"/>
			<path class="st2" d="M0.1,138.2c0-23.3,0.3-46.5-0.1-69.8c-0.2-15.3,14-32.3,31.4-32.3C52.2,36,73.1,34.5,94,36.4
				c29.7,2.8,54.8,26.5,59.5,55.5c3,18.3,0.2,35.9-11.1,51.4c-13.3,18.3-30.9,28.8-53.9,29.6c-5.3,0.2-10.7,0.2-16.1,0
				c-3-0.1-3.9,1-3.8,3.9c0.1,9,0.1,17.9,0,26.9c-0.1,20.5-10.9,31.9-29,36C20,244,0.5,226.8,0.2,209
				C-0.1,185.4,0.2,161.8,0.1,138.2C0.1,138.2,0.1,138.2,0.1,138.2z M68.7,104.2c0,2.2,0,4.5,0,6.7c0,7.7,0.2,8,8.1,7.1
				c5.9-0.6,11.9-7,12.4-13c0.4-5.7-4.3-12.1-10.1-13.6c-7.9-2.1-10.3-0.3-10.3,7.7C68.7,100.8,68.7,102.5,68.7,104.2z"/>
			<path class="st2" d="M302.7,113.7c4.1-5.3,8.3-10.6,12.4-15.9c5.8-7.5,11-15.5,17.6-22.5c6-6.4,19.9-9,31.1-4.5
				c8.9,3.6,15.1,13.9,16,23.2c1.2,12-5.3,20.3-11.9,28.8c-5.7,7.4-11.4,14.9-17.1,22.3c-2.1,2.7-2.4,4.7,0.1,7.9
				c10.3,13.3,20,27,30.3,40.3c9.1,11.7,7.3,30.7-3.2,39c-15,11.7-32.7,9.4-43.1-4.7c-10.5-14.4-21.5-28.5-33.2-44
				c0,7.4,0,13.6,0,19.8c0,5.5,0.2,10.9-1.6,16.2c-4.2,12.1-15,20.1-27.6,20.3c-10,0.2-22.5-6.9-27.1-19.9c-1-2.8-1.1-6.1-1.1-9.2
				c0-51,0.2-101.9,0.1-152.9c0-13.1,9.7-24.1,21.7-26.7c12.6-2.8,27.2,3.9,32.5,15.1c2.1,4.5,3.1,9.3,3.1,14.3
				c0,15.8,0,31.7,0,47.5c0,1.6,0,3.3,0,4.9C302,113.4,302.3,113.5,302.7,113.7z"/>
			<path class="st2" d="M227.2,154c0,18.3,0,36.5,0,54.8c0,16.8-7.8,25.9-22.7,30.6c-14.5,4.6-34.2-9-34.3-24.2
				c-0.3-40.1-0.3-80.3-0.1-120.4c0-13.3,8.8-22.1,23.2-25.6c13.7-3.3,29.3,6.6,32.2,18.5c0.9,3.6,1.8,7.2,1.8,11
				C227.1,117.1,227.2,135.6,227.2,154z"/>
			<path class="st2" d="M198.1,57c-15.4,1.1-28.8-12.5-28.7-28.8c0-14.6,11.7-28.3,29-28.2c14.8,0.1,28.7,12.7,28.7,27.9
				C227.3,45.7,211.1,58.6,198.1,57z"/>
		</g>
	</g>
</g>
</svg>
