<svg id="Layer_1" data-name="Layer 1" xmlns="http://www.w3.org/2000/svg" viewBox="0 0 600 208.62"><defs><style>.cls-1{fill:#fff;}</style></defs><path class="cls-1" d="M389,195.39V161.24c0-14.23-3.7-30.87-22.48-30.87-10.81,0-20.2,6-25.61,13.8-1.57-4.13-7.11-13.8-21.91-13.8a31.08,31.08,0,0,0-25.76,13.51l-.28-12.23h-.71l-26,8.39v.71c4.41,3.56,6.69,7,6.69,13.52v41.12c0,5.12-1.43,10-5,11.38v.86h31v-.86c-3.56-1.42-5-6.68-5-11.38V144.74a18.27,18.27,0,0,1,13.94-6.41c7,0,12.52,5.41,12.52,18.64v38.42c0,5.12-1.42,10-5,11.38v.86h31v-.86c-3.56-1.42-5-6.68-5-11.38V145.45c3.56-4,8.11-7.12,14.09-7.12,6.82,0,12.37,5.41,12.37,18.64v38.42c0,5.12-1.42,10-5,11.38v.86h31v-.86C390.4,205.35,389,200.09,389,195.39Z"/><path class="cls-1" d="M480.83,196.39h-.15c-2,3.7-4.55,4.69-6.83,4.69-3.27,0-6-2.13-6-10.1V162.1c0-18.36-9-31.73-29.74-31.73-18.07,0-29.6,14.08-29.6,28.31h.86c0-10,9-20.06,21.06-20.06,13.66,0,16.79,9.67,16.79,19.21v5.4l-19.92,7.26C410,176.75,403.71,184,403.71,193.11c0,9.39,7.25,15.51,18.07,15.51,10.53,0,19.06-5.12,25.75-13.23l.14.29c2.71,9.24,9.82,12.94,16.65,12.94,8.11,0,12.95-3.7,16.93-11.66Zm-33.58-2c-3.56,3.7-8.54,7-14.8,7-7.4,0-10.67-6.12-10.67-12.38,0-7,3.41-14.52,16.36-20.49l9.11-4.13Z"/><path class="cls-1" d="M516.37,195.39v-80h-.71c-7.54,2.42-21.06,6.54-27,8.39v.86c4.41,3.55,6.83,7,6.83,13.37v57.39c0,4.7-1.42,10-5,11.38v.86h31v-.86C517.93,205.35,516.37,200.09,516.37,195.39Z"/><path class="cls-1" d="M258.07,164.09v-1.85c-.14-17.65-10.1-31.87-33.58-31.87-20,0-34.05,13.73-37,32H145.09V117.23h9.68c18.36,0,27,10.1,30.88,19.35h.71l-3.56-21.2h-65v1c3.55,1.43,5.83,6.55,5.83,11.25V178h0v17.41c0,4.7-2.28,9.82-5.84,11.24v1h33.3v-1c-3.56-1.42-6-6.54-6-11.24V179.76h0V164.09h42.18a44.23,44.23,0,0,0-.34,5.55c0,23.9,15.79,39,38.56,39,17.92,0,25.32-9,31-19.63l-.42-.71c-6.69,8.11-14.23,9.81-21.49,9.81-16.36,0-25.32-15.36-25.32-34h48.8Zm-48.8-1.71c.28-18.92,5.26-30.16,15.79-30.16,9.82,0,14.09,9.67,14.09,30.16Z"/><path class="cls-1" d="M600,164.09v-1.85c-.15-17.64-10.11-31.87-33.59-31.87-20,0-34,13.73-37,32-.1.56-.17,1.13-.23,1.71a44,44,0,0,0-.35,5.55c0,23.9,15.79,39,38.56,39,17.92,0,25.32-9,31-19.63l-.44-.71c-6.69,8.11-14.22,9.82-21.48,9.82-16.36,0-25.32-15.37-25.32-34H600Zm-48.8-1.71c.27-18.93,5.26-30.16,15.79-30.16,9.82,0,14.08,9.67,14.08,30.16Z"/><path class="cls-1" d="M0,86,3.31,71.35h.57c6.47,9.15,18.55,21,32.07,21,12.8,0,20.56-5,20.56-15.13,0-23.66-52.77-20.48-52.77-50.88C3.74,9.66,19.7,0,40,0c14,0,24.15,3.43,32.35,8.27L68.88,23.53h-.72C63.27,13.73,52.34,1.91,39.4,1.91c-11.79,0-19,6-19,14.62,0,22.39,53.92,19.08,53.92,50.75,0,16.53-14.66,27-38.25,27C22.15,94.24,7.91,91.19,0,86Z"/><path class="cls-1" d="M198,19.68l-5.4,14.23h-.29c-5.55-5.83-10.24-7.68-15.79-7.68-5.83,0-9,4-10.39,6V81c0,4.69,1.43,10,5,11.38v.85h-31v-.85c3.55-1.42,5-6.26,5-11.38V39.6c0-6-2.28-9.67-6.69-13.23v-.71l26.18-8.39h.85V30.92C170.52,22.39,178.77,16,187,16,192.28,16.13,195.56,17.69,198,19.68Z"/><path class="cls-1" d="M198,55.25C198,34.06,214.25,16,236.59,16c23.19,0,38.56,16.93,38.56,39,0,21.48-16.08,39.27-38.56,39.27C213.26,94.24,198,77.59,198,55.25Zm54.78-.14c-.14-25.75-6.12-37.27-16.22-37.27s-16.07,11.52-16.22,37.27c0,26,6.12,37.28,16.22,37.28S252.81,81.15,252.81,55.11Z"/><path class="cls-1" d="M358.37,81c0,4.69,1.43,10,5,11.38v.85h-31v-.85c3.55-1.42,5-6.26,5-11.38V42.59c0-13.23-5.55-18.64-12.52-18.64a18.26,18.26,0,0,0-13.95,6.41V81c0,4.69,1.43,10,5,11.38v.85h-31v-.85c3.55-1.42,5-6.26,5-11.38V39.89c0-6.55-2.28-10-6.69-13.52v-.71l26.18-8.39h.85V29.5A31,31,0,0,1,335.89,16c18.79,0,22.48,16.64,22.48,30.87Z"/><path class="cls-1" d="M408.2,79.3c23.05,1.14,35,8.25,35,21.34,0,14.37-16.22,22.77-37.85,22.77-15.65,0-34.72-4.84-34.72-16.37,0-7.11,8.54-10.67,14.8-12.23-6.12-1.57-10.24-6-10.24-11.38,0-9.39,7.4-14.37,14.94-17.5A24.53,24.53,0,0,1,375.9,43.16c0-14.8,12.09-26.46,31-26.46A37.32,37.32,0,0,1,424,20.54c6.26-2.42,15.51-7.12,20.91-11.1L447,25.8l-20.21-3.55c6.69,4.55,10.53,12,10.53,20.91,0,14.8-12.09,26.18-30.44,26.18A40.11,40.11,0,0,1,392,66.64c-4.7,1.85-7.4,3.7-7.4,6.54,0,3.27,3,5,8.82,5.27Zm21.62,28.88c0-6.69-5-10.38-15.51-11.24-9.95-.71-17.5-1.28-25.18-1.56-.57,0-1.28-.15-1.85-.15-3.13,2.14-4.69,6.55-4.69,10.68,0,9.39,9.67,15.79,22.76,15.79C422.42,121.7,429.82,116.15,429.82,108.18Zm-34.43-65c0,18.64,3.7,24.47,11.53,24.47,6.83,0,10.81-6.11,10.81-24.47s-4-24.76-10.81-24.76C399.38,18.4,395.53,24.66,395.39,43.16Z"/><path class="cls-1" d="M130.42,78.87c-2.7,3-5.55,5.84-10.24,5.84-5.84,0-10.25-3-10.25-13.38V23.52h18.5V21.81h-18.5V5h-.57A273,273,0,0,1,79.2,22.81v.71H89V70.34c0,15.08,7,23.9,20.06,23.9,10.38,0,16.93-4.41,21.91-14.65Z"/></svg>